# xmcd
#
# Track frame offsets:
# 150
# 16823
# 32795
# 53100
# 80139
# 137440
# 162250
# 191276
# 204154
# 230172
# 247921
# 276954
#
# Disc length: 4069 seconds
#
#
# Revision: 0
# Processed by: cddbd v1.5.2PL0 Copyright (c) Steve Scherf et al.
# Submitted via: Nero 7, 11, 10, 0 
#
DISCID=990fe30c
DTITLE=The Hoax - The Best Of mp3
DYEAR=1900
DGENRE=Blues
TTITLE0=The Night Will Come
TTITLE1=C'mon Susie
TTITLE2=The Big Sleep
TTITLE3=Automatic (Live)
TTITLE4=I'll Take Care Of You (Live)
TTITLE5=Will Be True (Live)
TTITLE6=Feeding Time (Live)
TTITLE7=Something Out Of Nothing (Unplugged)
TTITLE8=Sugar (Live)
TTITLE9=20 Ton Weight (Live In Holland)
TTITLE10=Can't Stop Me
TTITLE11=Unbekann
EXTD=
EXTT0=The Night Will Come
EXTT1=C'mon Susie
EXTT2=The Big Sleep
EXTT3=Automatic (Live)
EXTT4=I'll Take Care Of You (Live)
EXTT5=Will Be True (Live)
EXTT6=Feeding Time (Live)
EXTT7=Something Out Of Nothing (Unplugged)
EXTT8=Sugar (Live)
EXTT9=20 Ton Weight (Live In Holland)
EXTT10=Can't Stop Me
EXTT11=Unbekann
PLAYORDER=
